<?xml version="1.0" ?><!DOCTYPE svg  PUBLIC '-//W3C//DTD SVG 1.1//EN'  'http://www.w3.org/Graphics/SVG/1.1/DTD/svg11.dtd'><svg enable-background="new 0 0 500 500" height="500px" id="Layer_1" version="1.1" viewBox="0 0 500 500" width="500px" xml:space="preserve" xmlns="http://www.w3.org/2000/svg" xmlns:xlink="http://www.w3.org/1999/xlink"><g><g><path d="M163.708,308h0.301h170.753h0.325c0.508,0,2.912-2.586,2.912-7.203V208H161v92.588    C161,304.92,162.846,307,163.708,308z" fill="none"/><path d="M170.63,179.813c-4.432,0-8.147,3.1-9.11,7.244c-0.158,0.681-0.251,1.388-0.251,2.117    c0,5.161,4.199,9.36,9.361,9.36c5.161,0,9.36-4.199,9.36-9.36c0-0.729-0.092-1.436-0.251-2.117    C178.777,182.913,175.062,179.813,170.63,179.813z" fill="none"/><path d="M229.566,179.813c-4.432,0-8.147,3.1-9.11,7.244c-0.158,0.681-0.251,1.388-0.251,2.117    c0,5.161,4.199,9.36,9.36,9.36c5.161,0,9.361-4.199,9.361-9.36c0-0.729-0.092-1.436-0.251-2.117    C237.713,182.913,233.999,179.813,229.566,179.813z" fill="none"/><path d="M200.098,179.813c-4.432,0-8.147,3.1-9.11,7.244c-0.158,0.681-0.251,1.388-0.251,2.117    c0,5.161,4.199,9.36,9.36,9.36c5.161,0,9.361-4.199,9.361-9.36c0-0.729-0.092-1.436-0.251-2.117    C208.245,182.913,204.53,179.813,200.098,179.813z" fill="none"/><path d="M338,300.797c0,4.617-2.404,7.203-2.912,7.203h-0.325H164.01h-0.301c-0.862-1-2.708-3.08-2.708-7.412V208h-19v92.588    c0,14.236,9.531,26.412,21.685,26.412h0.325h170.753h0.325C347.243,327,357,315.033,357,300.797V208h-19V300.797z"/><path d="M356.931,191.89c-0.042-0.777-0.121-1.541-0.241-2.289c-0.14-0.87-0.335-1.661-0.576-2.487    C353.501,178.135,345.13,172,335.127,172h-0.324H165.234h-0.324c-9.333,0-17.974,4.93-21.491,12.759    c-0.972,2.487-1.42,5.14-1.42,7.986V208h18.652h177.447h18.832h0.024l0.012-14.661    C356.967,192.942,356.952,192.279,356.931,191.89z M170.63,198.534c-5.161,0-9.361-4.199-9.361-9.36    c0-0.729,0.092-1.436,0.251-2.117c0.963-4.143,4.678-7.244,9.11-7.244c4.432,0,8.147,3.1,9.11,7.244    c0.158,0.681,0.251,1.388,0.251,2.117C179.99,194.335,175.791,198.534,170.63,198.534z M200.098,198.534    c-5.161,0-9.36-4.199-9.36-9.36c0-0.729,0.092-1.436,0.251-2.117c0.963-4.143,4.678-7.244,9.11-7.244    c4.432,0,8.147,3.1,9.11,7.244c0.158,0.681,0.251,1.388,0.251,2.117C209.459,194.335,205.259,198.534,200.098,198.534z     M229.566,198.534c-5.161,0-9.36-4.199-9.36-9.36c0-0.729,0.092-1.436,0.251-2.117c0.963-4.143,4.678-7.244,9.11-7.244    c4.432,0,8.147,3.1,9.11,7.244c0.158,0.681,0.251,1.388,0.251,2.117C238.927,194.335,234.728,198.534,229.566,198.534z"/></g><g><path d="M189.317,224.119l12.299-5.698v2.965l-9.205,4.1l9.205,4.125v2.991l-12.299-5.698V224.119z"/><path d="M222.038,231.7c-1.015,1.066-2.089,1.865-3.223,2.398c-1.135,0.533-2.501,0.799-4.1,0.799    c-2.613,0-4.796-0.898-6.549-2.694c-1.754-1.796-2.63-4.001-2.63-6.614c0-2.613,0.877-4.826,2.63-6.64    c1.753-1.813,3.979-2.72,6.678-2.72c1.564,0,2.892,0.241,3.984,0.722c1.092,0.481,2.118,1.178,3.081,2.089l-2.037,2.346    c-1.616-1.496-3.301-2.243-5.054-2.243c-1.719,0-3.142,0.615-4.268,1.844c-1.126,1.229-1.689,2.746-1.689,4.551    c0,1.805,0.567,3.331,1.702,4.577c1.135,1.247,2.553,1.869,4.255,1.869c1.031,0,1.942-0.193,2.733-0.58    c0.79-0.387,1.607-0.975,2.45-1.766L222.038,231.7z"/><path d="M240.783,218.936c1.77,1.805,2.656,4.005,2.656,6.601c0,2.596-0.894,4.805-2.682,6.627    c-1.788,1.822-4.048,2.733-6.782,2.733c-2.733,0-4.985-0.902-6.756-2.707c-1.77-1.805-2.656-4.005-2.656-6.601    c0-2.595,0.894-4.805,2.682-6.627c1.788-1.822,4.048-2.733,6.782-2.733C236.761,216.229,239.012,217.131,240.783,218.936z     M238.398,230.127c1.143-1.238,1.715-2.75,1.715-4.538c0-1.788-0.581-3.309-1.741-4.564c-1.16-1.255-2.626-1.882-4.396-1.882    s-3.227,0.619-4.37,1.857c-1.144,1.238-1.715,2.75-1.715,4.538c0,1.788,0.581,3.309,1.741,4.564    c1.16,1.255,2.626,1.882,4.396,1.882C235.798,231.983,237.254,231.364,238.398,230.127z"/><path d="M260.908,219.104c1.796,1.71,2.695,3.855,2.695,6.433c0,2.578-0.899,4.731-2.695,6.459    c-1.797,1.728-4.096,2.591-6.898,2.591h-6.73v-18.049h6.73C256.812,216.538,259.111,217.393,260.908,219.104z M260.276,225.589    c0-1.805-0.576-3.283-1.727-4.435c-1.152-1.151-2.665-1.728-4.538-1.728h-3.558V231.7h3.558c1.874,0,3.386-0.571,4.538-1.715    C259.7,228.842,260.276,227.376,260.276,225.589z"/><path d="M280.827,216.538v2.836h-10.211v4.693h9.051v2.836h-9.051v4.848h10.34v2.836h-13.511v-18.049H280.827z"/><path d="M297.097,226.903l-12.299,5.698v-2.965l9.205-4.1l-9.205-4.126v-2.991l12.299,5.698V226.903z"/><path d="M196.175,260.862l4.435-13.434h2.682l4.435,13.434l4.306-13.382h3.327l-6.292,18.178h-2.733l-4.435-12.97l-4.435,12.97    h-2.733l-6.292-18.178h3.429L196.175,260.862z"/><path d="M231.991,247.48v2.837H221.78v4.693h9.05v2.836h-9.05v4.848h10.34v2.836h-13.511v-18.05H231.991z"/><path d="M243.981,247.48c1.821,0,3.266,0.417,4.332,1.251c1.066,0.834,1.598,1.956,1.598,3.365c0,1.805-0.859,3.154-2.578,4.048    c2.389,0.808,3.584,2.278,3.584,4.409c0,1.599-0.602,2.828-1.805,3.687c-1.204,0.86-2.828,1.289-4.874,1.289h-8.354v-18.05    H243.981z M243.336,255.086c1.048,0,1.878-0.21,2.488-0.632c0.61-0.421,0.915-1.035,0.915-1.843c0-0.739-0.275-1.311-0.825-1.715    c-0.55-0.404-1.332-0.606-2.346-0.606h-4.564v4.796H243.336z M244.264,262.718c1.1,0,1.955-0.214,2.565-0.645    c0.61-0.429,0.915-1.048,0.915-1.856c0-1.633-1.238-2.45-3.713-2.45h-5.028v4.95H244.264z"/><path d="M257.182,252.198c0,0.722,0.288,1.276,0.864,1.663c0.576,0.387,1.715,0.786,3.417,1.199    c1.994,0.481,3.459,1.126,4.396,1.934c0.937,0.808,1.405,1.934,1.405,3.378c0,1.667-0.593,2.987-1.779,3.958    c-1.186,0.971-2.742,1.457-4.667,1.457c-2.871,0-5.38-0.962-7.529-2.888l1.908-2.269c1.805,1.564,3.704,2.346,5.698,2.346    c0.98,0,1.757-0.206,2.333-0.619c0.576-0.412,0.864-0.971,0.864-1.676c0-0.687-0.275-1.229-0.825-1.624    c-0.55-0.396-1.633-0.782-3.249-1.16c-2.097-0.516-3.623-1.152-4.577-1.908c-0.954-0.756-1.431-1.925-1.431-3.507    c0-1.564,0.576-2.832,1.728-3.803c1.151-0.971,2.63-1.457,4.435-1.457c2.475,0,4.658,0.757,6.549,2.269l-1.702,2.398    c-1.667-1.238-3.3-1.857-4.899-1.857c-0.911,0-1.629,0.206-2.153,0.619C257.444,251.064,257.182,251.579,257.182,252.198z"/><path d="M271.183,247.48h3.171v18.05h-3.171V247.48z"/><path d="M286.808,250.419v15.11h-3.197v-15.11h-5.724v-2.939h14.646v2.939H286.808z"/><path d="M309.267,247.48v2.837h-10.211v4.693h9.05v2.836h-9.05v4.848h10.34v2.836h-13.511v-18.05H309.267z"/><path d="M312.902,247.48h3.661v0.903l-0.954,11.448h-1.727l-0.98-11.448V247.48z M316.461,265.529h-3.43v-3.533h3.43V265.529z"/><path d="M189.317,286.002l12.299-5.698v2.966l-9.205,4.1l9.205,4.126v2.991l-12.299-5.698V286.002z"/><path d="M215.024,275.895h2.708l-11.655,23.877h-2.707L215.024,275.895z"/><path d="M235.471,293.583c-1.014,1.066-2.088,1.865-3.223,2.398c-1.135,0.533-2.501,0.799-4.1,0.799    c-2.613,0-4.796-0.898-6.549-2.694c-1.754-1.796-2.63-4.001-2.63-6.614c0-2.613,0.877-4.826,2.63-6.639    c1.754-1.814,3.979-2.72,6.678-2.72c1.564,0,2.891,0.241,3.984,0.722c1.092,0.481,2.118,1.177,3.081,2.088l-2.037,2.347    c-1.616-1.496-3.3-2.243-5.054-2.243c-1.719,0-3.142,0.615-4.267,1.843c-1.126,1.229-1.689,2.746-1.689,4.551    c0,1.805,0.568,3.33,1.702,4.577c1.135,1.247,2.552,1.869,4.255,1.869c1.031,0,1.942-0.193,2.733-0.58    c0.791-0.386,1.607-0.975,2.449-1.766L235.471,293.583z"/><path d="M254.217,280.819c1.77,1.805,2.656,4.006,2.656,6.601c0,2.596-0.894,4.805-2.682,6.627    c-1.788,1.822-4.048,2.733-6.782,2.733c-2.733,0-4.985-0.902-6.756-2.707c-1.77-1.805-2.656-4.005-2.656-6.601    c0-2.595,0.894-4.804,2.682-6.626c1.788-1.822,4.048-2.733,6.782-2.733C250.194,278.112,252.446,279.014,254.217,280.819z     M251.831,292.01c1.143-1.238,1.715-2.75,1.715-4.538c0-1.787-0.58-3.309-1.741-4.564c-1.16-1.255-2.626-1.882-4.396-1.882    c-1.77,0-3.228,0.619-4.37,1.856c-1.144,1.238-1.715,2.751-1.715,4.538c0,1.788,0.58,3.309,1.74,4.564    c1.16,1.255,2.626,1.882,4.397,1.882C249.231,293.866,250.688,293.248,251.831,292.01z"/><path d="M274.341,280.987c1.796,1.711,2.695,3.855,2.695,6.434c0,2.578-0.899,4.731-2.695,6.459    c-1.797,1.728-4.096,2.591-6.898,2.591h-6.73v-18.049h6.73C270.245,278.421,272.545,279.277,274.341,280.987z M273.71,287.472    c0-1.805-0.576-3.283-1.727-4.435c-1.152-1.152-2.665-1.728-4.538-1.728h-3.558v12.274h3.558c1.873,0,3.387-0.571,4.538-1.715    C273.134,290.725,273.71,289.26,273.71,287.472z"/><path d="M294.26,278.421v2.836h-10.211v4.693h9.05v2.837h-9.05v4.847h10.34v2.837h-13.511v-18.049H294.26z"/><path d="M310.531,288.787l-12.299,5.698v-2.965l9.205-4.1l-9.205-4.126v-2.991l12.299,5.698V288.787z"/></g></g></svg>