<?xml version="1.0" ?><!DOCTYPE svg  PUBLIC '-//W3C//DTD SVG 1.1//EN'  'http://www.w3.org/Graphics/SVG/1.1/DTD/svg11.dtd'><svg enable-background="new 0 0 500 500" height="500px" id="Layer_1" version="1.1" viewBox="0 0 500 500" width="500px" xml:space="preserve" xmlns="http://www.w3.org/2000/svg" xmlns:xlink="http://www.w3.org/1999/xlink"><g><path d="M355.891,219.743l25.641-7.6l16.759-4.968l-16.759-4.968l-27.28-8.086c-2.151-5.264-6.28-9.487-11.483-11.722    l-7.596-25.626l-4.968-16.759l-4.968,16.759l-7.076,23.874H164.814h-0.322c-9.219,0-17.013,5.656-20.161,13.712    c-1.036,2.307-1.621,4.861-1.621,7.612v14.927h0.125v32.573l-1.852,6.249l-21.758,6.449l-16.759,4.968l16.759,4.968l21.407,6.345    l2.203,7.431v27.023c0,12.038,9.618,21.979,21.656,21.979h0.322h133.945l2.456,8.284l4.968,16.759l4.968-16.759l2.456-8.284h20.33    h0.322c12.039,0,21.634-9.764,21.634-21.802V219.743z M330.206,158.246l10.107,34.099l0.991,3.342l3.342,0.991l35.414,10.497    l-34.84,10.327l-3.342,0.991l-0.991,3.342l-10.681,36.037l-10.564-35.64l-0.991-3.342l-3.342-0.991l-36.178-10.723l36.752-10.894    l3.342-0.991l0.991-3.342L330.206,158.246z M229.743,189.517c5.112,0,9.271,4.159,9.271,9.271c0,5.112-4.159,9.271-9.271,9.271    c-5.112,0-9.271-4.159-9.271-9.271C220.472,193.676,224.632,189.517,229.743,189.517z M200.557,189.517    c5.112,0,9.271,4.159,9.271,9.271c0,5.112-4.159,9.271-9.271,9.271c-5.112,0-9.271-4.159-9.271-9.271    C191.286,193.676,195.445,189.517,200.557,189.517z M171.37,189.517c5.112,0,9.271,4.159,9.271,9.271    c0,5.112-4.159,9.271-9.271,9.271c-5.112,0-9.271-4.159-9.271-9.271C162.099,193.676,166.258,189.517,171.37,189.517z     M143.113,260.492l2.039-0.604l0.604-2.039l6.093-20.555l6.164,20.797l0.604,2.039l2.038,0.604l21.599,6.402l-21.249,6.298    l-2.039,0.604l-0.604,2.039l-6.515,21.979l-6.443-21.737l-0.604-2.039l-2.038-0.604l-22.065-6.54L143.113,260.492z     M164.491,316.229c-1.628,0-3.004-1.523-3.004-3.327v-29.135l1.648-5.561l20.591-6.103l16.759-4.967l-16.759-4.968l-20.941-6.207    l-1.298-4.379v-34.685H293.7l20.136,5.969l0.646,0.192l0.192,0.646l10.564,35.64l4.968,16.759l4.967-16.759l2.066-6.969v60.704    c0,1.796-1.282,3.15-2.982,3.15h-0.322h-19.901l-2.884-9.731l-4.968-16.759l-4.968,16.759l-2.884,9.731H164.814H164.491z     M309.797,329.495l-3.616,12.198l-3.576-12.064l-0.335-1.131l-1.131-0.335l-12.246-3.63l12.441-3.687l1.131-0.335l0.335-1.131    l3.382-11.408l3.421,11.543l0.335,1.131l1.131,0.335l11.988,3.553l-11.793,3.496l-1.131,0.335L309.797,329.495z"/></g></svg>